<?xml version="1.0" encoding="utf-8"?>
<!-- Generator: Adobe Illustrator 22.0.1, SVG Export Plug-In . SVG Version: 6.00 Build 0)  -->
<svg version="1.1" id="Layer_1" xmlns="http://www.w3.org/2000/svg" xmlns:xlink="http://www.w3.org/1999/xlink" x="0px" y="0px"
	 viewBox="0 0 60 60" style="enable-background:new 0 0 60 60;" xml:space="preserve">
<style type="text/css">
	.st0{fill:#FFFFFF;}
</style>
<path class="st0" d="M28,27h10l0,0.1c-3.3,0.4-5.9,2.8-6.8,5.9H31h-3l-0.3,0c0.2-0.8,0.3-1.8,0.3-3c0-1.1-0.1-2.1-0.3-3L28,27z"/>
<path class="st0" d="M41.1,33.1l-2,0c-1.1,0-2,0.9-2,2c0,0.5,0.2,1,0.6,1.4c0.4,0.4,0.9,0.6,1.4,0.6c0.5,0,1-0.2,1.4-0.6
	c0.4-0.4,0.6-0.9,0.6-1.4L41.1,33.1z M47.1,34l0,0.1l0,1c0.1,4.3-3.3,7.8-7.6,7.9l-0.4,0c-4.4,0.1-7.9-3.3-8-7.6c0-0.1,0-0.2,0-0.2
	c0-0.7,0.1-1.4,0.2-2c0.7-3.2,3.4-5.6,6.6-6.1c0.3,0,0.7-0.1,1-0.1l2,0l0,0c7.2-0.1,13.7-4.7,16.2-11.4l1.5-3.9l0.7,36l-1.6-3.8
	C55.7,39.1,51.8,35.6,47.1,34z"/>
<g>
	<path class="st0" d="M16,23h10c0,0,2,2.1,2,7c0,5.1-2,7-2,7H16V23z"/>
	<path class="st0" d="M26,38H16c-0.6,0-1-0.4-1-1V23c0-0.6,0.4-1,1-1h10c0.3,0,0.5,0.1,0.7,0.3c0.1,0.1,2.3,2.4,2.3,7.7
		c0,5.4-2.2,7.6-2.3,7.7C26.5,37.9,26.3,38,26,38z M17,36h8.5c0.5-0.7,1.5-2.5,1.5-6c0-3.4-1-5.3-1.5-6H17V36z"/>
</g>
<g>
	<path class="st0" d="M59,49c-0.4,0-0.8-0.2-0.9-0.6l-1.6-3.9c-1.6-4.1-4.7-7.2-8.5-9c-0.1,2.2-1,4.3-2.6,5.9
		c-1.7,1.7-3.9,2.6-6.2,2.6h-0.4c-2.4,0-4.6-0.9-6.3-2.6c-1.7-1.7-2.6-3.9-2.6-6.2V35c0-5,4-9,9-9h2c6.9,0,13-4.1,15.5-10.5l1.5-3.8
		c0.2-0.4,0.7-0.7,1.1-0.6c0.5,0.1,0.8,0.5,0.8,1v36c0,0.5-0.3,0.9-0.8,1C59.1,49,59.1,49,59,49z M41,32c7.4,0,13.9,4.2,17,10.9
		V17.1C54.9,23.8,48.4,28,41,28h-2c-3.9,0-7,3.1-7,7v0.2c0,1.8,0.7,3.5,2,4.8c1.3,1.3,3,2,4.9,2h0.4c1.8,0,3.5-0.7,4.8-2
		c1.3-1.3,2-3,2-4.8v-0.5c-1.3-0.4-2.6-0.6-4-0.7v1c0,1.7-1.3,3-3,3s-3-1.3-3-3s1.3-3,3-3H41z M39,34c-0.6,0-1,0.4-1,1s0.4,1,1,1
		s1-0.4,1-1v-1H39z"/>
	<path class="st0" d="M38,28H28c-0.6,0-1-0.4-1-1s0.4-1,1-1h10c0.6,0,1,0.4,1,1S38.6,28,38,28z"/>
	<path class="st0" d="M31,34h-3c-0.6,0-1-0.4-1-1s0.4-1,1-1h3c0.6,0,1,0.4,1,1S31.6,34,31,34z"/>
	<path class="st0" d="M55,23.8c-0.6,0-1-0.4-1-1v-2.5c0-0.6,0.4-1,1-1s1,0.4,1,1v2.5C56,23.4,55.6,23.8,55,23.8z"/>
	<path class="st0" d="M55,40.5c-0.6,0-1-0.4-1-1v-10c0-0.6,0.4-1,1-1s1,0.4,1,1v10C56,40.1,55.6,40.5,55,40.5z"/>
</g>
<g>
	<circle class="st0" cx="12" cy="30" r="11"/>
	<path class="st0" d="M12,42C5.4,42,0,36.6,0,30s5.4-12,12-12s12,5.4,12,12S18.6,42,12,42z M12,20C6.5,20,2,24.5,2,30s4.5,10,10,10
		s10-4.5,10-10S17.5,20,12,20z"/>
</g>
<path class="st0" d="M5,31c-0.6,0-1-0.4-1-1c0-4.4,3.6-8,8-8c0.6,0,1,0.4,1,1s-0.4,1-1,1c-3.3,0-6,2.7-6,6C6,30.6,5.6,31,5,31z"/>
</svg>
