<?xml version="1.0" ?><svg viewBox="0 0 64 64" xmlns="http://www.w3.org/2000/svg"><title/><g data-name="Layer 3" id="Layer_3"><path d="M43,53a.93.93,0,0,0,.45-.11c6.24-3.12,11.31-9.82,13.23-17.49L57,34.24A1,1,0,0,0,55,33.76l-.29,1.15C53,42,48.29,48.24,42.55,51.11a1,1,0,0,0-.44,1.34A1,1,0,0,0,43,53Z"/><path d="M7.66,22.59l-.43,1a1,1,0,0,0,.52,1.31,1.1,1.1,0,0,0,.4.08,1,1,0,0,0,.92-.61l.43-1a6.67,6.67,0,0,0-.1-5.31,4.74,4.74,0,0,1-.06-3.66l.43-1a1,1,0,1,0-1.84-.78l-.43,1a6.67,6.67,0,0,0,.1,5.31A4.74,4.74,0,0,1,7.66,22.59Z"/><path d="M15.66,22.59l-.43,1a1,1,0,0,0,.52,1.31,1.1,1.1,0,0,0,.4.08,1,1,0,0,0,.92-.61l.43-1a6.67,6.67,0,0,0-.1-5.31,4.74,4.74,0,0,1-.06-3.66l.43-1a1,1,0,1,0-1.84-.78l-.43,1a6.67,6.67,0,0,0,.1,5.31A4.74,4.74,0,0,1,15.66,22.59Z"/><path d="M44.23,23.61a1,1,0,0,0,.52,1.31,1.1,1.1,0,0,0,.4.08,1,1,0,0,0,.92-.61l.43-1a6.67,6.67,0,0,0-.1-5.31,4.74,4.74,0,0,1-.06-3.66l.43-1a1,1,0,1,0-1.84-.78l-.43,1a6.67,6.67,0,0,0,.1,5.31,4.74,4.74,0,0,1,.06,3.66Z"/><path d="M52.23,23.61a1,1,0,0,0,.52,1.31,1.1,1.1,0,0,0,.4.08,1,1,0,0,0,.92-.61l.43-1a6.67,6.67,0,0,0-.1-5.31,4.74,4.74,0,0,1-.06-3.66l.43-1a1,1,0,1,0-1.84-.78l-.43,1a6.67,6.67,0,0,0,.1,5.31,4.74,4.74,0,0,1,.06,3.66Z"/><path d="M61,6H41V5H61a1,1,0,0,0,0-2H40.22A3,3,0,0,0,36,2.78a3,3,0,0,0-4,0,3,3,0,0,0-4,0A3,3,0,0,0,23.78,3H18a1,1,0,0,0-1,1V7a1,1,0,0,0,1,1h5V29H2a1,1,0,0,0-1,1C1,42.71,7.5,53.24,18,57.67V61a1,1,0,0,0,1,1H43a1,1,0,0,0,1-1V57.67c10.5-4.43,17-15,17-27.67a1,1,0,0,0-1-1H41V8H61a1,1,0,0,0,0-2ZM34,4a1,1,0,0,1,1,1V29H33V5A1,1,0,0,1,34,4ZM30,4a1,1,0,0,1,1,1V29H29V5A1,1,0,0,1,30,4ZM19,6V5h4V6Zm6-1a1,1,0,0,1,2,0V29H25ZM42.63,56.07A1,1,0,0,0,42,57v3H20V57a1,1,0,0,0-.63-.93C9.55,52.22,3.35,42.67,3,31H59C58.65,42.67,52.45,52.22,42.63,56.07ZM37,29V5a1,1,0,0,1,2,0V29Z"/></g></svg>