<?xml version="1.0" ?><svg viewBox="0 0 64 64" xmlns="http://www.w3.org/2000/svg"><path d="M29.604 64c-3.456 0-8.404-.022-12.35-.125-6.006-.157-7.62-.2-8.247-2.342-.436-1.494.102-5.848 2.24-7.007.604-.328 1.298-.497 7.906-1.7.71-.128 1.495-.27 2.188-.4-.134-3.324-.45-9.728-.595-11.903-.54-.68-1.515-1.895-2.53-3.162C5.414 21.413 2.942 18.06 2.48 16.92c-.713-1.77-.633-3.472.226-4.79.483-.74 1.654-1.99 4.074-2.05 1.688-.04 20.938-.175 27.998-.224.355-2.114 1.428-4.647 3.91-6.735C40.98 1.194 44.69 0 48.37 0 53.972 0 58.4 2.66 60.515 7.298c1.934 4.238 1.98 8.826.132 12.92-1.64 3.63-4.595 6.387-7.902 7.37-1.387.41-2.783.62-4.145.62-1.704 0-3.115-.324-4.175-.698-4.028 4.622-9.382 10.806-11.012 12.792.058 2.06.26 7.53.432 11.943 11.97 1.922 12.785 2.922 13.387 3.662 1.164 1.43 1.33 3.473 1.095 4.906-.196 1.192-.697 2.05-1.493 2.55-.713.452-1.01.637-17.23.637z" fill="#FFF"/><path d="M58.13 8.4C54.606.68 44.185 1.943 40.374 5.147c-3.81 3.204-3.04 7.33-3.04 7.33s-28.463.195-30.49.244-2.652 1.41-1.93 3.205C5.64 17.72 23.268 39.37 23.298 39.52c.096.487.82 14.906.724 15.052-.095.146-10.902 1.942-11.53 2.282-.626.34-1.205 3.107-.964 3.933.24.825 33.53.583 33.916.34s.627-2.476-.24-3.544c-.87-1.068-13.895-3.06-13.895-3.06s-.58-14.758-.53-15.098c.047-.34 12.977-15.148 12.977-15.148s3.184 2.282 8.25.777C57.068 23.548 61.65 16.12 58.13 8.4zM29.12 38.635c-.18.473-.072 17.005.18 17.187.254.182 12.738 2.403 13.027 2.877.288.472.252.764.144.764-.11 0-27.065-.146-27.1-.328-.037-.182-.037-.546.216-.583.253-.036 10.493-2.367 10.565-2.622.072-.254-.253-17.186-.29-17.44-.035-.256-12.808-14.493-13.17-16.35 0 0 1.556-.474 2.46-.51.905-.037 2.062-.11 2.135 0 .072.108 2.026 3.203 2.28 3.203.253 0 1.303-.583 1.122-.8-.18-.22-1.845-2.696-1.845-2.696s1.41.4 2.678-.073c1.266-.473 2.28-.874 2.64-.837.363.036 3.257 1.493 5.718 1.202 2.46-.292 5.174-1.057 5.898-.91.725.145 1.81 1.128 3.475 1.273 1.664.146 3.003.073 3.184.255.18.183-13.137 15.913-13.318 16.387zm15.113-18.632c-.675.388-3.33 1.214-4.246.825-.918-.388-2.8-1.554-3.716-1.554s-4.39 1.457-6.802 1.165-4.15-1.36-5.355-1.263c-1.206.097-3.377 1.068-5.21 1.214-1.833.147-4.15-.29-4.438-.29s-2.75 1.214-2.847 1.02c-.096-.194-4.197-5.292-4.197-6.312 0-.26 36.424-.194 37.148-.146.724.05 2.412.534 2.268 1.36-.147.826-1.932 3.593-2.607 3.98zm12.604-6.056c-.327 3.314-1.195 7.5-4.56 8.52-3.365 1.02-6.622 1.02-6.73-.072-.11-1.092 4.378-5.207 4.053-7.064-.326-1.856-1.303-2.402-3.04-2.548-1.736-.146-6.186-.11-6.584-.364-.282-.18-.218-2.476 0-3.605.216-1.13 3.545-4.552 9.01-4.005 5.46.545 8.174 5.825 7.85 9.14zm-45.375 2.585c-.18-.073-1.158 0-1.23.146-.072.146 1.81 3.022 1.918 3.204.11.182.977-.218 1.122-.655.144-.437-1.62-2.618-1.81-2.695zM20.33 27.02c-.398-.037-1.05.545-.796 1.273.253.728 1.592.728 1.81-.036.216-.765-.218-1.165-1.014-1.238zm4.56 1.274c-.4-.036-1.05.546-.797 1.274s1.592.728 1.81-.036c.216-.765-.218-1.166-1.014-1.238zm.903-4.807c.217-.765-.217-1.165-1.013-1.238-.398-.037-1.05.545-.796 1.274.254.728 1.592.728 1.81-.037zm5.754 2.913c-.398-.036-1.05.546-.796 1.274s1.593.728 1.81-.036-.217-1.165-1.013-1.238zm5.427-2.986c-.398-.036-1.05.546-.796 1.275.253.727 1.592.727 1.81-.037.216-.765-.218-1.166-1.014-1.24zm-8.54 8.667c-.397-.035-1.048.547-.795 1.275.252.728 1.59.728 1.808-.036.217-.766-.217-1.167-1.013-1.24zM42.8 9.068c.072.218 1.954 2.767 2.062 2.804.11.037.868-.4.94-.51.073-.108-2.17-2.948-2.17-2.948-.217.073-.905.437-.832.655zm5.1-2.112c-.035.182-.07 3.787.037 4.005.11.22.65.22.905.146s.29-3.787.29-4.115c0-.326-1.19-.243-1.23-.035zm5.682 3.096c-.253.11-3.655 1.894-3.69 2.077-.037.182.397.692.542.728.145.036 3.546-1.384 3.727-1.64s-.384-1.248-.578-1.164zm-1.773 5.9c-.218.218-.47.983-.47.983s2.75 1.566 2.966 1.566c.217 0 .507-1.24.507-1.24s-2.752-1.564-3.004-1.31zm-2.317 3.313c-.036.146.47 2.403.47 2.403s1.34-.182 1.375-.29c.036-.11-.643-2.033-.832-2.186-.18-.145-.976-.073-1.013.073z"/></svg>